<svg width="9" height="12" viewBox="0 0 9 12" fill="none" xmlns="http://www.w3.org/2000/svg">
<path d="M3.88677 2.02561H5.11377C5.68156 2.02644 6.17456 2.65891 6.30477 3.55357C6.3157 3.62816 6.35679 3.68088 6.40414 3.68105H8.28439C8.31151 3.68121 8.33755 3.66389 8.35676 3.63291C8.37597 3.60192 8.38677 3.55983 8.38677 3.51593V1.85988C8.38677 1.50863 8.30055 1.17178 8.14709 0.923462C7.99362 0.675148 7.7855 0.535728 7.56852 0.535889H1.43202C1.21504 0.535728 1.00691 0.675148 0.853452 0.923462C0.69999 1.17178 0.61377 1.50863 0.61377 1.85988V3.51593C0.613769 3.55983 0.624567 3.60192 0.643777 3.63291C0.662987 3.66389 0.689028 3.68121 0.716145 3.68105H2.59639C2.64384 3.68132 2.68509 3.62841 2.69577 3.55357C2.82598 2.65891 3.31897 2.02644 3.88677 2.02561Z" fill="black"/>
<path d="M0.409125 4.6748C0.300588 4.67464 0.196468 4.74437 0.11972 4.86861C0.0429727 4.99285 -9.94487e-05 5.1614 1.72426e-07 5.3371V8.81372C-1.61014e-07 9.12849 0.136854 9.39977 0.327375 9.46267C0.374914 9.4785 0.409054 9.54618 0.409125 9.62475V10.9657C0.409125 11.3315 0.592297 11.628 0.81825 11.628C1.0442 11.628 1.22738 11.3315 1.22738 10.9657V9.64175C1.22728 9.59785 1.23798 9.5557 1.25712 9.5246C1.27626 9.4935 1.30226 9.47602 1.32937 9.47602H7.67062C7.69774 9.47602 7.72374 9.4935 7.74288 9.5246C7.76202 9.5557 7.77272 9.59785 7.77262 9.64175V10.9657C7.77262 11.3315 7.9558 11.628 8.18175 11.628C8.4077 11.628 8.59087 11.3315 8.59087 10.9657V9.62475C8.59095 9.54618 8.62509 9.4785 8.67262 9.46267C8.86314 9.39977 9 9.12849 9 8.81372V5.3371C9.0001 5.1614 8.95703 4.99285 8.88028 4.86861C8.80353 4.74437 8.69941 4.67464 8.59087 4.6748H0.409125Z" fill="black"/>
</svg>
