<svg width="12" height="18" viewBox="0 0 12 18" fill="none" xmlns="http://www.w3.org/2000/svg">
<path fill-rule="evenodd" clip-rule="evenodd" d="M11.4175 10.0861C11.5492 10.0875 11.6747 10.1678 11.7645 10.3081C11.8546 10.4457 11.9014 10.6317 11.8935 10.8215C11.7505 14.3051 9.7704 17.0236 7.37581 17.0239H4.98604C2.59145 17.0236 0.611387 14.3051 0.468337 10.8215C0.462065 10.6322 0.508396 10.4471 0.59687 10.3081C0.686072 10.1661 0.812258 10.0855 0.944386 10.0861H2.66673C2.77169 10.0876 2.86491 9.98864 2.89619 9.84262C3.02051 9.26648 3.38627 8.87371 3.80068 8.87133H6.18331C6.59772 8.87371 6.96348 9.26648 7.0878 9.84262C7.11882 9.98742 7.21079 10.086 7.31488 10.0861H9.86984C10.0013 10.0861 10.1079 9.93083 10.1079 9.73924V2.45456C10.1084 2.18038 9.99809 1.93146 9.82639 1.8194C9.65469 1.70734 9.45381 1.75315 9.31381 1.9363L9.11863 2.22075C9.05512 2.31397 9.03319 2.45148 9.06198 2.57597C9.22797 3.29048 9.10202 4.08037 8.73684 4.61499L8.64163 4.75721C8.45573 5.02805 8.15439 5.02805 7.96849 4.75721L6.70934 2.92147C6.5235 2.65055 6.5235 2.21139 6.70934 1.94047L6.80693 1.79824C7.17812 1.28145 7.71405 1.10345 8.20223 1.3348C8.28702 1.37406 8.37974 1.34114 8.44264 1.24946L8.66305 0.92824C9.07956 0.367335 9.68433 0.218727 10.204 0.549585C10.7237 0.880444 11.0598 1.62808 11.0604 2.45456V9.73924C11.0604 9.93083 11.167 10.0861 11.2985 10.0861H11.4175ZM5.94252 14.4222C6.07397 14.4222 6.18054 14.2669 6.18054 14.0754V10.6065C6.18054 10.4149 6.07397 10.2596 5.94252 10.2596H4.03832C3.90686 10.2596 3.80029 10.4149 3.80029 10.6065V14.0754C3.80029 14.2669 3.90686 14.4222 4.03832 14.4222H5.94252Z" fill="black"/>
<path d="M4.75272 4.59701C4.82146 4.59788 4.8895 4.57705 4.95219 4.53596L5.81669 3.95457C5.97138 3.85108 6.07643 3.6352 6.09228 3.38822C6.10813 3.14125 6.03236 2.90072 5.89353 2.75723C5.75469 2.61374 5.57388 2.5891 5.41919 2.69258L4.55326 3.27328C4.35025 3.40979 4.23978 3.73379 4.28774 4.05204C4.33569 4.37028 4.52915 4.59702 4.75272 4.59701Z" fill="black"/>
<path d="M7.19119 8.358C7.43294 8.50829 7.71253 8.34463 7.81577 7.99237L8.18994 6.71582C8.28644 6.36566 8.17322 5.96731 7.93508 5.81917C7.69695 5.67103 7.42124 5.82742 7.31449 6.1712L6.94269 7.44984C6.84023 7.80064 6.9512 8.20621 7.19119 8.358Z" fill="black"/>
<path d="M5.45975 6.67003C5.64473 6.94221 5.94607 6.94439 6.13289 6.67488L6.80983 5.69943C6.99159 5.42876 6.99083 4.99568 6.80812 4.72637C6.62541 4.45707 6.32827 4.45106 6.1405 4.71287L5.46356 5.68902C5.27666 5.95841 5.27496 6.39758 5.45975 6.67003Z" fill="black"/>
</svg>
