<svg width="13" height="18" viewBox="0 0 13 18" fill="none" xmlns="http://www.w3.org/2000/svg">
<path d="M3.92039 3.53583C4.1833 3.53583 4.39643 3.22521 4.39643 2.84205V1.1076C4.39643 0.724434 4.1833 0.413818 3.92039 0.413818C3.65747 0.413818 3.44434 0.724434 3.44434 1.1076V2.84205C3.44434 3.22521 3.65747 3.53583 3.92039 3.53583Z" fill="black"/>
<path d="M2.73011 5.27032C2.73011 4.88715 2.51698 4.57654 2.25406 4.57654H1.06394C0.801025 4.57654 0.587891 4.88715 0.587891 5.27032C0.587891 5.65348 0.801025 5.9641 1.06394 5.9641H2.25406C2.51698 5.9641 2.73011 5.65348 2.73011 5.27032Z" fill="black"/>
<path d="M2.25406 11.5143H1.06394C0.801025 11.5143 0.587891 11.8249 0.587891 12.2081C0.587891 12.5912 0.801025 12.9018 1.06394 12.9018H2.25406C2.51698 12.9018 2.73011 12.5912 2.73011 12.2081C2.73011 11.8249 2.51698 11.5143 2.25406 11.5143Z" fill="black"/>
<path d="M8.68064 0.413818C8.41772 0.413818 8.20459 0.724434 8.20459 1.1076V2.84205C8.20459 3.22521 8.41772 3.53583 8.68064 3.53583C8.94355 3.53583 9.15669 3.22521 9.15669 2.84205V1.1076C9.15669 0.724434 8.94355 0.413818 8.68064 0.413818Z" fill="black"/>
<path d="M3.92039 13.9425C3.65747 13.9425 3.44434 14.2531 3.44434 14.6363V16.3707C3.44434 16.7539 3.65747 17.0645 3.92039 17.0645C4.1833 17.0645 4.39643 16.7539 4.39643 16.3707V14.6363C4.39643 14.2531 4.1833 13.9425 3.92039 13.9425Z" fill="black"/>
<path d="M8.68064 13.9425C8.41772 13.9425 8.20459 14.2531 8.20459 14.6363V16.3707C8.20459 16.7539 8.41772 17.0645 8.68064 17.0645C8.94355 17.0645 9.15669 16.7539 9.15669 16.3707V14.6363C9.15669 14.2531 8.94355 13.9425 8.68064 13.9425Z" fill="black"/>
<path d="M10.3469 5.9641H11.537C11.7999 5.9641 12.0131 5.65348 12.0131 5.27032C12.0131 4.88715 11.7999 4.57654 11.537 4.57654H10.3469C10.084 4.57654 9.87085 4.88715 9.87085 5.27032C9.87085 5.65348 10.084 5.9641 10.3469 5.9641Z" fill="black"/>
<path d="M11.537 11.5143H10.3469C10.084 11.5143 9.87085 11.8249 9.87085 12.2081C9.87085 12.5912 10.084 12.9018 10.3469 12.9018H11.537C11.7999 12.9018 12.0131 12.5912 12.0131 12.2081C12.0131 11.8249 11.7999 11.5143 11.537 11.5143Z" fill="black"/>
<path fill-rule="evenodd" clip-rule="evenodd" d="M8.68088 4.57654C8.94379 4.57654 9.15693 4.88715 9.15693 5.27032V12.2081C9.15693 12.5913 8.94379 12.9019 8.68088 12.9019H3.92039C3.65747 12.9019 3.44434 12.5913 3.44434 12.2081V5.27032C3.44434 4.88715 3.65747 4.57654 3.92039 4.57654H8.68088ZM7.9671 11.5144C8.09856 11.5144 8.20512 11.3591 8.20512 11.1675V6.31105C8.20512 6.11947 8.09856 5.96416 7.9671 5.96416H4.63475C4.5033 5.96416 4.39673 6.11947 4.39673 6.31105V11.1675C4.39673 11.3591 4.5033 11.5144 4.63475 11.5144H7.9671Z" fill="black"/>
</svg>
